<svg fill="none" height="24" viewBox="0 0 24 24" width="24" xmlns="http://www.w3.org/2000/svg"><g fill="#292d32"><path d="m14.81 17.0999c-.01 0-.02 0-.03 0h-6.67001c-1.98-.14-2.85999-1.6499-2.85999-3 0-1.13.62001-2.3699 1.95001-2.8299-.3-1.50001.07-2.90001 1.06-3.94001 1.19-1.25 3.09999-1.73999 4.73999-1.23999 1.46.45 2.51 1.62 2.92 3.25 1.25.35 2.24 1.33 2.65 2.66.46 1.52.04 3.08-1.1 4.07-.72.66-1.67 1.0299-2.66 1.0299zm-6.66999-4.5c-1.02.09-1.39001.86-1.39001 1.5 0 .65.37 1.4301 1.41 1.5h6.62c.65 0 1.22-.2199 1.68-.6499.84-.73.89-1.78.67-2.52s-.85-1.5801-1.94-1.7101c-.33-.04-.59-.29-.65-.62-.22-1.32995-.93-2.2399-1.99-2.5699-1.09-.34-2.42.00997-3.21.83997-.78.81-.95 1.95993-.5 3.22993.14.39-.05999.8201-.44999.9601-.08.03-.21.05-.25.0399z"/><path d="m9 22.75c-4.27 0-7.75-3.48-7.75-7.75 0-.41.34-.75.75-.75s.75.34.75.75c0 2.96 2.05999 5.44 4.82999 6.09l-.26999-.45c-.21-.36-.09999-.82.26001-1.03.35-.21.82-.1 1.03.26l1.04998 1.75c.14.23.14001.52.01001.75-.14.23-.39.38-.66.38z"/><path d="m22.0004 9.75c-.41 0-.75-.34-.75-.75 0-2.96-2.06-5.44003-4.83-6.09003l.27.45002c.21.36.1.82002-.26 1.03002-.35.21-.82.1-1.03-.26001l-1.05-1.75c-.14-.23-.14-.52-.01-.75.13-.24.38-.38.65-.38 4.27 0 7.75 3.48 7.75 7.75.01.41-.33.75-.74.75z"/></g></svg>